<?xml version="1.0" encoding="utf-8"?>
<!-- Generator: Adobe Illustrator 27.5.0, SVG Export Plug-In . SVG Version: 6.00 Build 0)  -->
<svg version="1.1" xmlns="http://www.w3.org/2000/svg" xmlns:xlink="http://www.w3.org/1999/xlink" x="0px" y="0px"
	 viewBox="0 0 500 500" style="enable-background:new 0 0 500 500;" xml:space="preserve">
<g id="BACKGROUND">
	<g>
		<rect id="XMLID_494_" style="fill:#DFE9F7;" width="500" height="500"/>
		<rect y="381.091" style="fill:#B9D4EF;" width="500" height="118.909"/>
	</g>
</g>
<g id="OBJECTS">
	<g>
		<g>
			<g>
				<g>
					<circle style="fill:#140C74;" cx="254.424" cy="56.764" r="17.368"/>
					<g>
						
							<ellipse transform="matrix(0.1595 -0.9872 0.9872 0.1595 157.8102 298.8789)" style="fill:#140C74;" cx="254.424" cy="56.764" rx="14.056" ry="14.056"/>
						<path style="fill:#7E9AF5;" d="M254.424,71.265c-7.995,0-14.501-6.505-14.501-14.501s6.505-14.501,14.501-14.501
							c7.995,0,14.501,6.505,14.501,14.501S262.42,71.265,254.424,71.265z M254.424,43.153c-7.505,0-13.611,6.106-13.611,13.611
							c0,7.505,6.105,13.611,13.611,13.611c7.505,0,13.611-6.106,13.611-13.611C268.035,49.259,261.93,43.153,254.424,43.153z"/>
					</g>
					<g>
						<path style="fill:#7E9AF5;" d="M249.976,117.669h-47.797c-2.698,0-4.894-2.195-4.894-4.894v-2.482h0.89v2.482
							c0,2.208,1.796,4.004,4.004,4.004h47.797c2.208,0,4.004-1.796,4.004-4.004V74.132h0.89v38.643
							C254.869,115.473,252.673,117.669,249.976,117.669z"/>
					</g>
					<circle style="fill:#140C74;" cx="197.731" cy="79.308" r="30.985"/>
					<g>
						<circle style="fill:#140C74;" cx="197.731" cy="79.308" r="28.347"/>
						<path style="fill:#7E9AF5;" d="M197.73,108.1c-15.876,0-28.791-12.916-28.791-28.791c0-15.876,12.915-28.792,28.791-28.792
							s28.792,12.916,28.792,28.792C226.522,95.184,213.606,108.1,197.73,108.1z M197.73,51.406
							c-15.385,0-27.902,12.517-27.902,27.902s12.516,27.902,27.902,27.902s27.902-12.517,27.902-27.902
							S213.115,51.406,197.73,51.406z"/>
					</g>
					<circle style="fill:#140C74;" cx="102.927" cy="102.531" r="27.39"/>
					<g>
						<circle style="fill:#140C74;" cx="102.927" cy="102.531" r="25.422"/>
						<path style="fill:#7E9AF5;" d="M102.927,128.311c-14.215,0-25.78-11.565-25.78-25.78c0-14.215,11.565-25.78,25.78-25.78
							c14.215,0,25.779,11.564,25.779,25.78C128.707,116.746,117.142,128.311,102.927,128.311z M102.927,77.466
							c-13.821,0-25.065,11.244-25.065,25.065c0,13.82,11.244,25.064,25.065,25.064c13.82,0,25.064-11.244,25.064-25.064
							C127.992,88.711,116.748,77.466,102.927,77.466z"/>
					</g>
					
						<ellipse transform="matrix(0.9213 -0.389 0.389 0.9213 -7.9243 122.5681)" style="fill:#140C74;" cx="298.742" cy="80.855" rx="26.602" ry="26.602"/>
					<g>
						<circle style="fill:#140C74;" cx="298.742" cy="80.854" r="24.772"/>
						<path style="fill:#7E9AF5;" d="M298.742,106.071c-13.905,0-25.216-11.312-25.216-25.216c0-13.905,11.312-25.217,25.216-25.217
							c13.905,0,25.217,11.312,25.217,25.217C323.959,94.759,312.646,106.071,298.742,106.071z M298.742,56.527
							c-13.414,0-24.327,10.913-24.327,24.327c0,13.414,10.913,24.327,24.327,24.327c13.414,0,24.327-10.913,24.327-24.327
							C323.069,67.44,312.156,56.527,298.742,56.527z"/>
					</g>
					<circle style="fill:#140C74;" cx="376.818" cy="91.628" r="38.567"/>
					<g>
						<circle style="fill:#140C74;" cx="376.818" cy="91.628" r="34.864"/>
						<path style="fill:#7E9AF5;" d="M376.819,126.937c-19.47,0-35.309-15.84-35.309-35.309c0-19.47,15.84-35.309,35.309-35.309
							c19.47,0,35.309,15.84,35.309,35.309C412.128,111.097,396.288,126.937,376.819,126.937z M376.819,57.209
							c-18.979,0-34.42,15.441-34.42,34.419c0,18.979,15.441,34.419,34.42,34.419c18.979,0,34.419-15.44,34.419-34.419
							C411.238,72.649,395.797,57.209,376.819,57.209z"/>
					</g>
					
						<ellipse transform="matrix(0.2017 -0.9794 0.9794 0.2017 145.6111 558.1179)" style="fill:#140C74;" cx="415.197" cy="189.73" rx="34.43" ry="34.43"/>
					<g>
						
							<ellipse transform="matrix(0.901 -0.4339 0.4339 0.901 -41.2036 198.9271)" style="fill:#140C74;" cx="415.197" cy="189.73" rx="31.061" ry="31.061"/>
						<path style="fill:#7E9AF5;" d="M415.197,221.236c-17.372,0-31.505-14.133-31.505-31.506c0-17.372,14.133-31.506,31.505-31.506
							c17.372,0,31.506,14.133,31.506,31.506C446.703,207.103,432.569,221.236,415.197,221.236z M415.197,159.114
							c-16.881,0-30.616,13.734-30.616,30.616c0,16.882,13.734,30.616,30.616,30.616c16.882,0,30.616-13.734,30.616-30.616
							C445.813,172.848,432.079,159.114,415.197,159.114z"/>
					</g>
					<g>
						<path style="fill:#7E9AF5;" d="M299.187,54.252h-0.89V31.493c0-2.208-1.796-4.004-4.004-4.004h-35.421
							c-2.208,0-4.004,1.796-4.004,4.004v7.902h-0.89v-7.902c0-2.698,2.196-4.893,4.894-4.893h35.421
							c2.698,0,4.893,2.195,4.893,4.893V54.252z"/>
					</g>
					<g>
						<path style="fill:#7E9AF5;" d="M326.097,81.299h-0.753v-0.89h0.753c2.208,0,4.004-1.796,4.004-4.004V45.097
							c0-2.698,2.195-4.893,4.893-4.893h37.375c2.698,0,4.893,2.195,4.893,4.893v7.964h-0.89v-7.964
							c0-2.208-1.796-4.004-4.004-4.004h-37.375c-2.208,0-4.004,1.796-4.004,4.004v31.309
							C330.991,79.104,328.795,81.299,326.097,81.299z"/>
					</g>
					<g>
						<path style="fill:#7E9AF5;" d="M414.961,155.3h-0.89v-12.485c0-2.208-1.796-4.004-4.004-4.004h-28.801
							c-2.698,0-4.893-2.195-4.893-4.893v-3.723h0.89v3.723c0,2.208,1.796,4.004,4.004,4.004h28.801
							c2.698,0,4.893,2.195,4.893,4.893V155.3z"/>
					</g>
					<path style="fill:#7E9AF5;" d="M193.282,32.657h-39.364c-2.698,0-4.893,2.195-4.893,4.893v70.924h-21.01v0.932h21.01h0.89
						V37.55c0-2.208,1.796-4.004,4.004-4.004h39.364c2.208,0,4.004,1.796,4.004,4.004v10.774h0.89V37.55
						C198.175,34.852,195.98,32.657,193.282,32.657z"/>
				</g>
			</g>
			<g>
				<g>
					<path style="fill:#F9F8F7;" d="M393.95,84.145c2.676-8.775-2.258-13.074-7.306-13.445c-4.904-0.36-7.192,3.049-10.68,3.049
						c-3.487,0-5.775-3.409-10.68-3.049c-5.047,0.371-9.982,4.67-7.306,13.445c1.564,5.13,2.604,7.81,3.513,11.522
						c1.721,7.02-1.589,9.577,1.022,19.424c1.292,4.873,6.721,6.999,6.721,6.999c2.373-1.485-3.659-7.617,0.899-17.382
						c1.297-2.778,1.906-6.743,5.83-6.743c3.924,0,4.533,3.966,5.83,6.743c4.558,9.765-1.474,15.897,0.899,17.382
						c0,0,5.429-2.126,6.721-6.999c2.611-9.848-0.699-12.404,1.022-19.424C391.346,91.954,392.385,89.275,393.95,84.145z"/>
					<g>
						<g>
							
								<rect x="402.106" y="87.599" transform="matrix(0.7071 -0.7071 0.7071 0.7071 51.1167 313.0524)" style="fill:#D1D3D4;" width="2.669" height="14.45"/>
						</g>
						<g>
							<path style="fill:#D1D3D4;" d="M388.706,95.03c-3.829,0-7.656-1.457-10.571-4.371c-2.824-2.824-4.379-6.578-4.379-10.571
								c0-3.993,1.555-7.747,4.379-10.571c5.83-5.83,15.314-5.828,21.14,0l0,0l0,0c2.824,2.824,4.379,6.578,4.379,10.571
								c0,3.993-1.555,7.747-4.379,10.571C396.361,93.573,392.533,95.03,388.706,95.03z M388.705,67.814
								c-3.145,0-6.289,1.197-8.683,3.59c-2.32,2.32-3.597,5.404-3.597,8.684c0,3.28,1.277,6.364,3.597,8.684
								c4.787,4.787,12.579,4.788,17.366,0c2.32-2.32,3.597-5.404,3.597-8.684c0-3.28-1.277-6.364-3.597-8.684l0,0
								C394.994,69.01,391.85,67.814,388.705,67.814z"/>
						</g>
						<g>
							<path style="fill:#FF6B71;" d="M426.484,121.426c-0.911,0-1.821-0.348-2.516-1.042l-17.934-17.934
								c-1.39-1.39-1.39-3.643,0-5.033c1.389-1.389,3.642-1.389,5.033,0L429,115.35c1.39,1.39,1.39,3.643,0,5.033
								C428.306,121.078,427.395,121.426,426.484,121.426z"/>
						</g>
					</g>
				</g>
				<g>
					<g>
						<g>
							<path style="fill:#FFFFFF;" d="M102.491,103.729c-0.367,0-0.665-0.298-0.665-0.665v-12.68c0-0.367,0.298-0.665,0.665-0.665
								c0.367,0,0.665,0.298,0.665,0.665v12.68C103.156,103.431,102.858,103.729,102.491,103.729z"/>
						</g>
						<g>
							<path style="fill:#FF6B71;" d="M102.491,120.213c-0.564,0-1.022-0.457-1.022-1.022v-16.128c0-0.564,0.457-1.021,1.022-1.021
								c0.564,0,1.022,0.457,1.022,1.021v16.128C103.512,119.756,103.055,120.213,102.491,120.213z"/>
						</g>
						<g>
							<path style="fill:#FFFFFF;" d="M102.491,91.048c-2.848,0-5.165-2.317-5.165-5.165c0-2.848,2.317-5.165,5.165-5.165
								c2.848,0,5.165,2.317,5.165,5.165C107.656,88.731,105.339,91.048,102.491,91.048z M102.491,82.049
								c-2.114,0-3.835,1.72-3.835,3.834c0,2.115,1.72,3.835,3.835,3.835c2.114,0,3.834-1.72,3.834-3.835
								C106.325,83.769,104.605,82.049,102.491,82.049z"/>
						</g>
					</g>
					<g>
						<g>
							<path style="fill:#FFFFFF;" d="M114.403,108.239c-0.367,0-0.665-0.298-0.665-0.665v-13.11c0-0.367,0.298-0.665,0.665-0.665
								s0.665,0.298,0.665,0.665v13.11C115.069,107.941,114.771,108.239,114.403,108.239z"/>
						</g>
						<g>
							<path style="fill:#FF6B71;" d="M114.403,120.213c-0.564,0-1.022-0.457-1.022-1.022v-11.618c0-0.564,0.457-1.022,1.022-1.022
								s1.022,0.457,1.022,1.022v11.618C115.425,119.756,114.968,120.213,114.403,120.213z"/>
						</g>
						<g>
							<path style="fill:#FFFFFF;" d="M114.403,95.129c-0.367,0-0.665-0.298-0.665-0.665c0-0.367,0.298-0.665,0.665-0.665
								c1.308,0,2.373-1.064,2.373-2.373c0-1.308-1.064-2.373-2.373-2.373c-1.308,0-2.372,1.064-2.372,2.373
								c0,0.367-0.298,0.665-0.665,0.665c-0.367,0-0.665-0.298-0.665-0.665c0-2.042,1.661-3.703,3.703-3.703
								c2.042,0,3.703,1.661,3.703,3.703S116.446,95.129,114.403,95.129z"/>
						</g>
					</g>
					<g>
						<g>
							<path style="fill:#FFFFFF;" d="M90.578,108.239c-0.367,0-0.665-0.298-0.665-0.665v-12.84l-3.7-3.788
								c-0.257-0.263-0.252-0.684,0.011-0.941c0.263-0.256,0.684-0.251,0.941,0.011l3.889,3.982
								c0.122,0.124,0.189,0.291,0.189,0.465v13.11C91.243,107.941,90.945,108.239,90.578,108.239z"/>
						</g>
						<g>
							<path style="fill:#FF6B71;" d="M90.578,120.213c-0.564,0-1.021-0.457-1.021-1.022v-11.618c0-0.564,0.457-1.022,1.021-1.022
								c0.564,0,1.022,0.457,1.022,1.022v11.618C91.599,119.756,91.142,120.213,90.578,120.213z"/>
						</g>
					</g>
				</g>
				<g>
					<g>
						<g>
							<path style="fill:#FF6B71;" d="M254.215,54.185l-3.153,3.153c-1.118,1.118-2.931,1.118-4.049,0l0,0
								c-1.118-1.118-1.118-2.931,0-4.049l3.153-3.153L254.215,54.185z"/>
							<path style="fill:#F9F8F7;" d="M250.166,50.137l3.153-3.153c1.118-1.118,2.931-1.118,4.049,0v0
								c1.118,1.118,1.118,2.931,0,4.049l-3.153,3.153L250.166,50.137z"/>
						</g>
						<path style="fill:#FFFFFF;" d="M254.92,48.164l-6.726,6.726c-0.246,0.246-0.645,0.246-0.89,0c-0.246-0.246-0.246-0.644,0-0.89
							l6.726-6.726c0.246-0.246,0.645-0.246,0.89,0C255.165,47.52,255.165,47.918,254.92,48.164z"/>
					</g>
					<g>
						<g>
							<path style="fill:#F9F8F7;" d="M257.171,63.86l-3.153,3.153c-1.118,1.118-2.931,1.118-4.049,0l0,0
								c-1.118-1.118-1.118-2.931,0-4.049l3.153-3.153L257.171,63.86z"/>
							<path style="fill:#FF6B71;" d="M253.122,59.811l3.153-3.153c1.118-1.118,2.931-1.118,4.049,0l0,0
								c1.118,1.118,1.118,2.931,0,4.049l-3.153,3.153L253.122,59.811z"/>
						</g>
						<path style="fill:#FFFFFF;" d="M257.875,57.839l-6.726,6.726c-0.246,0.246-0.644,0.246-0.89,0
							c-0.246-0.246-0.246-0.644,0-0.89l6.726-6.726c0.246-0.246,0.645-0.246,0.89,0C258.121,57.194,258.121,57.593,257.875,57.839z
							"/>
					</g>
				</g>
				<g>
					<g>
						<path style="fill:#D1D3D4;" d="M296.942,87.884l-4.1-4.1c-0.719-0.719-0.719-1.886,0-2.605l11.145-11.145l6.705,6.705
							l-11.145,11.145C298.827,88.603,297.661,88.603,296.942,87.884z"/>
						<path style="fill:#FF6B71;" d="M293.09,81.613l7.062-7.062l6.023,6.023l-7.062,7.062c-0.48,0.48-1.257,0.48-1.737,0
							l-4.286-4.286C292.61,82.87,292.61,82.093,293.09,81.613z"/>
						
							<rect x="291.973" y="85.152" transform="matrix(0.7071 0.7071 -0.7071 0.7071 147.7405 -181.7304)" style="fill:#E6E7E8;" width="2.546" height="4.655"/>
						
							<rect x="291.33" y="86.518" transform="matrix(-0.7071 0.7071 -0.7071 -0.7071 562.6304 -58.4304)" style="fill:#FF6B71;" width="4.173" height="1.582"/>
						<g>
							<polygon style="fill:#F9F8F7;" points="284.898,95.991 284.736,95.828 291.519,89.044 291.682,89.207 							"/>
						</g>
						<polygon style="fill:#FFFFFF;" points="304.126,77.622 302.652,77.051 307.169,72.534 307.74,74.008 						"/>
						
							<rect x="307.087" y="70.889" transform="matrix(0.7071 -0.7071 0.7071 0.7071 39.9077 239.5639)" style="fill:#D1D3D4;" width="4.052" height="1.447"/>
						<path style="fill:#E6E7E8;" d="M311.904,78.633l-9.811-9.811c-0.189-0.188-0.188-0.494,0-0.682
							c0.188-0.188,0.494-0.188,0.682,0l9.811,9.811c0.189,0.188,0.188,0.494,0,0.682C312.398,78.821,312.092,78.821,311.904,78.633
							z"/>
						
							<rect x="306.029" y="69.639" transform="matrix(0.7071 0.7071 -0.7071 0.7071 140.4866 -199.2568)" style="fill:#D1D3D4;" width="9.482" height="0.634"/>
						
							<rect x="299.128" y="77.021" transform="matrix(0.7071 0.7071 -0.7071 0.7071 143.5467 -191.8754)" style="fill:#FFFFFF;" width="8.518" height="0.634"/>
						<g>
							<g>
								<g>
									<polygon style="fill:#FFFFFF;" points="309.378,77.371 307.671,75.665 307.834,75.501 309.54,77.208 									"/>
								</g>
								<g>
									<polygon style="fill:#FFFFFF;" points="307.503,79.246 305.796,77.539 305.959,77.376 307.666,79.083 									"/>
								</g>
								<g>
									<polygon style="fill:#FFFFFF;" points="305.628,81.121 303.922,79.414 304.084,79.251 305.791,80.957 									"/>
								</g>
								<g>
									<polygon style="fill:#FFFFFF;" points="303.754,82.995 302.047,81.289 302.21,81.125 303.916,82.832 									"/>
								</g>
								<g>
									<polygon style="fill:#FFFFFF;" points="301.879,84.87 300.172,83.163 300.335,83 302.042,84.707 									"/>
								</g>
								<g>
									<polygon style="fill:#FFFFFF;" points="300.004,86.745 298.298,85.038 298.46,84.875 300.167,86.581 									"/>
								</g>
							</g>
							<g>
								<g>
									<polygon style="fill:#FFFFFF;" points="308.501,78.248 307.793,77.54 307.955,77.377 308.664,78.085 									"/>
								</g>
								<g>
									<polygon style="fill:#FFFFFF;" points="306.626,80.123 305.917,79.414 306.08,79.251 306.788,79.96 									"/>
								</g>
								<g>
									<polygon style="fill:#FFFFFF;" points="304.751,81.998 304.043,81.289 304.206,81.126 304.914,81.834 									"/>
								</g>
								<g>
									<polygon style="fill:#FFFFFF;" points="302.877,83.873 302.168,83.164 302.331,83.001 303.04,83.709 									"/>
								</g>
								<g>
									<polygon style="fill:#FFFFFF;" points="301.002,85.747 300.293,85.039 300.456,84.875 301.164,85.584 									"/>
								</g>
								<g>
									<polygon style="fill:#FFFFFF;" points="299.127,87.622 298.419,86.913 298.581,86.75 299.29,87.459 									"/>
								</g>
							</g>
						</g>
					</g>
					<path style="fill:#FFFFFF;" d="M293.732,82.201c-0.15-0.15-0.15-0.393,0-0.543l6.026-6.026c0.15-0.15,0.393-0.15,0.543,0
						c0.15,0.15,0.15,0.393,0,0.543l-6.026,6.026C294.125,82.35,293.882,82.351,293.732,82.201z"/>
				</g>
				<g>
					<path style="fill:#FF6B71;" d="M202.961,58.766H192.5c-0.478,0-0.865,0.387-0.865,0.865v2.837c0,0.478,0.387,0.865,0.865,0.865
						h10.461c0.478,0,0.865-0.387,0.865-0.865v-2.838C203.826,59.154,203.439,58.766,202.961,58.766z"/>
					<path style="fill:#D1D3D4;" d="M202.719,65.055v-1.722h-9.976v1.722c-3.494,0.519-6.081,3.519-6.081,7.051v2.411h0v19.001
						c0,0.975,0.79,1.764,1.764,1.764h18.609c0.974,0,1.764-0.79,1.764-1.764V72.107C208.8,68.574,206.213,65.575,202.719,65.055z"
						/>
					<path style="fill:#FF6B71;" d="M187.63,74.518V92.76c0,0.805,0.652,1.457,1.457,1.457h17.287c0.805,0,1.457-0.652,1.457-1.457
						V74.518H187.63z"/>
					<path style="fill:#FFFFFF;" d="M188.97,91.628c-0.425,0-0.769-0.344-0.769-0.769V72.107c0-2.748,2.05-5.125,4.769-5.529
						l0.063-0.009c0.422-0.063,0.812,0.227,0.874,0.647c0.063,0.42-0.227,0.812-0.648,0.874l-0.062,0.009
						c-1.971,0.293-3.457,2.016-3.457,4.008v18.752C189.739,91.284,189.394,91.628,188.97,91.628z"/>
				</g>
				<g>
					<path style="fill:#E6E7E8;" d="M397.036,211.766v-41.482c0-0.934,0.757-1.69,1.69-1.69h31.578c0.933,0,1.69,0.757,1.69,1.69
						v41.482c0,0.934-0.757,1.69-1.69,1.69h-31.578C397.793,213.457,397.036,212.7,397.036,211.766z"/>
					<rect x="399.128" y="171.14" style="fill:#FFFFFF;" width="29.142" height="36.61"/>
					<rect x="401.252" y="171.495" style="fill:#FF6B71;" width="29.142" height="36.61"/>
					<rect x="399.945" y="170.528" style="fill:#140C74;" width="29.142" height="34.602"/>
					<rect x="404.924" y="167.71" style="fill:#FF6B71;" width="19.183" height="3.785"/>
					<rect x="404.924" y="170.038" style="fill:#FF6B71;" width="19.183" height="1.456"/>
					<path style="fill:#FF6B71;" d="M416.728,165.01h-4.423c-0.6,0-1.087,0.486-1.087,1.087v2.698h6.597v-2.698
						C417.814,165.497,417.328,165.01,416.728,165.01z"/>
					<path style="fill:#FFFFFF;" d="M414.516,183.897c-2.415,0-3.188,4.679-3.607,6.505c-0.42,1.826-1.49,1.28-1.259,0.294
						c0.231-0.986-0.357-7.365-0.629-9.4c-0.273-2.035,0.273-3.462,1.993-3.735c1.721-0.273,2.266,0.818,3.502,0.818
						c1.236,0,1.782-1.091,3.502-0.818c1.721,0.273,2.266,1.7,1.993,3.735c-0.273,2.035-0.86,8.414-0.629,9.4
						c0.231,0.986-0.839,1.532-1.259-0.294C417.703,188.577,416.931,183.897,414.516,183.897z"/>
					<g>
						<polygon style="fill:#FFFFFF;" points="424.243,196.583 423.972,196.583 423.972,182.41 421.579,182.41 421.579,182.139 
							424.243,182.139 						"/>
					</g>
					<g>
						<polygon style="fill:#FFFFFF;" points="415.332,176.804 415.061,176.804 415.061,173.792 424.596,173.792 424.596,174.064 
							415.332,174.064 						"/>
					</g>
					<g>
						<polygon style="fill:#FFFFFF;" points="405.059,198.477 404.788,198.477 404.788,181.368 408.113,181.368 408.113,181.639 
							405.059,181.639 						"/>
					</g>
					<g>
						<polygon style="fill:#FFFFFF;" points="415.96,200.369 415.688,200.369 415.688,196.11 406.648,196.11 406.648,185.669 
							408.113,185.669 408.113,185.941 406.919,185.941 406.919,195.839 415.96,195.839 						"/>
					</g>
					<path style="fill:#E6E7E8;" d="M438.267,210.497l-0.248-1.143h0.812l-0.248,1.143
						C438.545,210.666,438.304,210.666,438.267,210.497"/>
					<path style="fill:#140C74;" d="M438.715,172.743c0.529,0,0.958,0.429,0.958,0.959v32.803c0,0-0.131,3.18-1.25,3.18
						c-1.118,0-1.249-3.18-1.249-3.18v-32.803c0-0.529,0.429-0.959,0.958-0.959H438.715z"/>
					<rect x="437.74" y="170.528" style="fill:#FFFFFF;" width="1.368" height="3.936"/>
					<path style="fill:#140C74;" d="M437.175,173.702v16.126h2.499v-16.126c0-0.529-0.429-0.959-0.958-0.959h-0.582
						C437.604,172.743,437.175,173.172,437.175,173.702"/>
					<rect x="437.175" y="189.118" style="fill:#FFFFFF;" width="2.499" height="0.709"/>
					<path style="fill:#140C74;" d="M437.196,173.503l-0.613,0.498c-0.362,0.294-0.572,0.736-0.572,1.203v0.221v8.894
						c0,0.278,0.225,0.503,0.503,0.503h0.131h0.096c0.092,0,0.171-0.064,0.19-0.154l0.139-0.656
						c0.016-0.074-0.041-0.144-0.117-0.144h-0.308v-8.443h0.553V173.503z"/>
					<g>
						<path style="fill:#FFFFFF;" d="M409.552,200.505h-4.764v-2.163h4.764V200.505z M405.059,200.234h4.222v-1.621h-4.222V200.234z
							"/>
					</g>
					<g>
						<path style="fill:#FFFFFF;" d="M420.214,201.637h-4.525v-1.403h4.525V201.637z M415.96,201.366h3.983v-0.861h-3.983V201.366z"
							/>
					</g>
					<g>
						<path style="fill:#FFFFFF;" d="M424.243,198.77h-5.312v-2.323h5.312V198.77z M419.202,198.499h4.77v-1.781h-4.77V198.499z"/>
					</g>
					<g>
						<path style="fill:#FFFFFF;" d="M424.732,176.186h-4.789v-2.393h4.789V176.186z M420.214,175.915h4.247v-1.851h-4.247V175.915z
							"/>
					</g>
					<path style="fill:#FFFFFF;" d="M415.332,166.903c0,0.451-0.365,0.816-0.816,0.816c-0.451,0-0.816-0.365-0.816-0.816
						c0-0.451,0.365-0.816,0.816-0.816C414.967,166.086,415.332,166.452,415.332,166.903z"/>
				</g>
			</g>
		</g>
		<g>
			<g>
				<rect x="109.076" y="290.163" style="fill:#FCFFFE;" width="83.887" height="125.968"/>
				<rect x="113.191" y="298.422" style="fill:#7E9AF5;" width="75.658" height="117.709"/>
				<rect x="104.813" y="281.361" style="fill:#FCFFFE;" width="92.413" height="8.801"/>
				<rect x="109.076" y="290.163" style="fill:#7E9AF5;" width="83.887" height="2.217"/>
				
					<rect x="122.891" y="181.381" transform="matrix(-1 -1.224647e-16 1.224647e-16 -1 252.5728 462.7423)" style="fill:#FCFFFE;" width="6.792" height="99.98"/>
				
					<rect x="126.286" y="181.381" transform="matrix(-1 -1.224647e-16 1.224647e-16 -1 255.9685 462.7423)" style="fill:#7E9AF5;" width="3.396" height="99.98"/>
				<path style="fill:#FCFFFE;" d="M117.304,238.764v42.598h-6.788V240.81c0-1.133-0.924-2.046-2.046-2.046H75.564
					c-1.133,0-2.057,0.913-2.057,2.046v11.42h-6.788v-13.466c0-1.87,0.759-3.576,1.991-4.808c1.221-1.232,2.915-1.991,4.797-1.991
					h37.009c1.881,0,3.576,0.759,4.797,1.991C116.544,235.188,117.304,236.894,117.304,238.764z"/>
				
					<rect x="68.089" y="175.994" transform="matrix(-1 -1.224647e-16 1.224647e-16 -1 203.1576 357.3753)" style="fill:#FCFFFE;" width="66.98" height="5.386"/>
				
					<rect x="68.089" y="175.994" transform="matrix(-1 -1.224647e-16 1.224647e-16 -1 203.1576 354.6821)" style="fill:#7E9AF5;" width="66.98" height="2.693"/>
				<path style="fill:#7E9AF5;" d="M202.907,106.569c0,0.946-0.506,1.859-1.397,2.354l-8.845,4.852L72.813,179.531
					c-1.232,0.682-2.739,0.275-3.498-0.847c-0.099-0.132-0.176-0.275-0.242-0.429c-0.154-0.352-0.22-0.715-0.22-1.067
					c0-0.957,0.506-1.87,1.386-2.354l128.697-70.608c1.276-0.704,2.882-0.253,3.609,1.012c0.011,0.022,0.022,0.033,0.022,0.055
					c0.143,0.242,0.231,0.506,0.286,0.759C202.885,106.228,202.907,106.393,202.907,106.569z"/>
				<path style="fill:#FCFFFE;" d="M202.907,106.569c0,0.946-0.506,1.859-1.397,2.354l-8.845,4.852L72.813,179.531
					c-1.232,0.682-2.739,0.275-3.498-0.847l133.251-73.392c0.143,0.242,0.231,0.506,0.286,0.759
					C202.885,106.228,202.907,106.393,202.907,106.569z"/>
				<path style="fill:#140C74;" d="M220.733,123.093l-21.044,11.471c3.889,3.55,9.739,4.427,14.618,1.768
					C219.177,133.677,221.609,128.285,220.733,123.093z"/>
				<path style="fill:#FCFFFE;" d="M191.127,140.293l39.584-21.381c1.394-0.753,1.509-2.708,0.22-3.629
					c-8.184-5.845-19.292-6.903-28.732-1.804c-9.424,5.09-14.628,14.959-14.228,25.008
					C188.034,140.07,189.733,141.046,191.127,140.293z"/>
				
					<rect x="197.127" y="108.13" transform="matrix(-0.8664 0.4993 -0.4993 -0.8664 428.2437 110.877)" style="fill:#FCFFFE;" width="4.33" height="9.173"/>
				<circle style="fill:#FFFFFF;" cx="71.064" cy="178.009" r="7.609"/>
				<circle style="fill:#7E9AF5;" cx="71.064" cy="178.009" r="3.871"/>
				<g>
					<path style="fill:#FCFFFE;" d="M149.267,268.314h-3.3v-33.371c0-5.258,4.277-9.535,9.535-9.535
						c5.258,0,9.535,4.277,9.535,9.535v4.767h-3.3v-4.767c0-3.438-2.797-6.235-6.234-6.235c-3.437,0-6.234,2.797-6.234,6.235
						V268.314z"/>
				</g>
				<path style="fill:#7E9AF5;" d="M198.408,262.813c0,4.555-1.848,8.68-4.841,11.662c-2.981,2.992-7.107,4.841-11.662,4.841h-32.73
					c-2.453,0-4.797-0.539-6.887-1.507c-5.677-2.607-9.615-8.339-9.615-14.995H198.408z"/>
				<path style="fill:#FFFFFF;" d="M181.96,262.813c-0.352,3.961-2.101,7.503-4.753,10.165c-2.982,2.981-7.118,4.83-11.673,4.83
					h-18.474c-5.309,0-10.287-2.885-12.659-7.634c-1.107-2.216-1.729-4.715-1.729-7.361H181.96z"/>
				<rect x="149.175" y="279.316" style="fill:#7E9AF5;" width="32.695" height="2.046"/>
				<path style="fill:#7E9AF5;" d="M80.171,270.652h-61.58c-0.945,0-1.711-0.766-1.711-1.711v-20.232
					c0-0.945,0.766-1.711,1.711-1.711h61.58c0.945,0,1.711,0.766,1.711,1.711v20.232C81.882,269.886,81.116,270.652,80.171,270.652z
					"/>
				<path style="fill:#FCFFFE;" d="M77.874,244.672v14.555c0,1.155-0.924,2.079-2.079,2.079H34.242
					c-1.144,0-2.079-0.924-2.079-2.079v-14.555c0-1.155,0.935-2.079,2.079-2.079h41.553
					C76.95,242.592,77.874,243.516,77.874,244.672z"/>
				<path style="fill:#7E9AF5;" d="M77.874,244.672v0.814H32.162v-0.814c0-1.155,0.935-2.079,2.079-2.079h41.553
					C76.95,242.592,77.874,243.516,77.874,244.672z"/>
				<g>
					<path style="fill:#140C74;" d="M38.149,230.054h-0.54c-0.386,0-0.699-0.313-0.699-0.699v-0.467
						c0-0.386,0.313-0.699,0.699-0.699h0.54c0.386,0,0.699,0.313,0.699,0.699v0.467C38.848,229.742,38.535,230.054,38.149,230.054z"
						/>
					<path style="fill:#7E9AF5;" d="M39.263,244.039h-2.766v-14.501c0-0.154,0.125-0.28,0.28-0.28h2.207
						c0.154,0,0.28,0.125,0.28,0.28V244.039z"/>
				</g>
				<g>
					<path style="fill:#140C74;" d="M46.332,230.054h-0.54c-0.386,0-0.699-0.313-0.699-0.699v-0.467
						c0-0.386,0.313-0.699,0.699-0.699h0.54c0.386,0,0.699,0.313,0.699,0.699v0.467C47.031,229.742,46.718,230.054,46.332,230.054z"
						/>
					<path style="fill:#7E9AF5;" d="M47.445,244.039h-2.766v-14.501c0-0.154,0.125-0.28,0.28-0.28h2.207
						c0.154,0,0.28,0.125,0.28,0.28V244.039z"/>
				</g>
				<g>
					<path style="fill:#140C74;" d="M54.514,230.054h-0.54c-0.386,0-0.699-0.313-0.699-0.699v-0.467
						c0-0.386,0.313-0.699,0.699-0.699h0.54c0.386,0,0.699,0.313,0.699,0.699v0.467C55.213,229.742,54.9,230.054,54.514,230.054z"/>
					<path style="fill:#7E9AF5;" d="M55.627,244.039h-2.766v-14.501c0-0.154,0.125-0.28,0.28-0.28h2.207
						c0.155,0,0.28,0.125,0.28,0.28V244.039z"/>
				</g>
				<g>
					<path style="fill:#140C74;" d="M62.697,230.054h-0.54c-0.386,0-0.699-0.313-0.699-0.699v-0.467
						c0-0.386,0.313-0.699,0.699-0.699h0.54c0.386,0,0.699,0.313,0.699,0.699v0.467C63.396,229.742,63.083,230.054,62.697,230.054z"
						/>
					<path style="fill:#7E9AF5;" d="M63.81,244.039h-2.766v-14.501c0-0.154,0.125-0.28,0.28-0.28h2.207
						c0.154,0,0.28,0.125,0.28,0.28V244.039z"/>
				</g>
				<path style="fill:none;stroke:#FCFFFE;stroke-miterlimit:10;" d="M34.923,252.482v25.923c0,1.633,1.324,2.957,2.957,2.957l0,0
					c1.633,0,2.957-1.324,2.957-2.957v-25.923"/>
				<path style="fill:none;stroke:#FCFFFE;stroke-miterlimit:10;" d="M43.105,252.482v31.801c0,1.633,1.324,2.957,2.957,2.957l0,0
					c1.633,0,2.957-1.324,2.957-2.957v-31.801"/>
				<path style="fill:none;stroke:#FCFFFE;stroke-miterlimit:10;" d="M51.287,252.482v25.923c0,1.633,1.324,2.957,2.957,2.957l0,0
					c1.633,0,2.957-1.324,2.957-2.957v-25.923"/>
				<path style="fill:none;stroke:#FCFFFE;stroke-miterlimit:10;" d="M59.47,252.482v41.548c0,1.633,1.324,2.957,2.957,2.957l0,0
					c1.633,0,2.957-1.324,2.957-2.957v-41.548"/>
				<rect x="113.792" y="416.131" style="fill:#140C74;" width="12.102" height="3.942"/>
				<rect x="176.32" y="416.131" style="fill:#140C74;" width="12.102" height="3.942"/>
				<path style="fill:#7E9AF5;" d="M113.904,239.659v41.703h-3.388V240.81c0-1.133-0.924-2.046-2.046-2.046H75.564
					c-1.132,0-2.057,0.926-2.057,2.057v1.771h-3.388v-2.934c0-2.372,1.923-4.294,4.294-4.294h35.198
					C111.981,235.364,113.904,237.287,113.904,239.659z"/>
				<path style="fill:#FCFFFE;" d="M28.873,268.727h-9.442c-0.421,0-0.763-0.342-0.763-0.763v-18.535
					c0-0.421,0.341-0.763,0.763-0.763h9.442c0.421,0,0.763,0.342,0.763,0.763v18.535C29.636,268.385,29.295,268.727,28.873,268.727z
					"/>
				<g>
					<path style="fill:#E6EAFC;" d="M23.289,252.217c0,0.909-0.737,1.645-1.645,1.645s-1.645-0.737-1.645-1.645
						c0-0.909,0.737-1.645,1.645-1.645S23.289,251.309,23.289,252.217z"/>
					<path style="fill:#140C74;" d="M28.204,252.217c0,0.909-0.737,1.645-1.645,1.645c-0.909,0-1.645-0.737-1.645-1.645
						c0-0.909,0.736-1.645,1.645-1.645C27.467,250.572,28.204,251.309,28.204,252.217z"/>
					<path style="fill:#140C74;" d="M23.289,256.792c0,0.909-0.737,1.645-1.645,1.645s-1.645-0.737-1.645-1.645
						c0-0.909,0.737-1.645,1.645-1.645S23.289,255.883,23.289,256.792z"/>
					<path style="fill:#E6EAFC;" d="M28.204,256.792c0,0.909-0.737,1.645-1.645,1.645c-0.909,0-1.645-0.737-1.645-1.645
						c0-0.909,0.736-1.645,1.645-1.645C27.467,255.147,28.204,255.883,28.204,256.792z"/>
					<path style="fill:#140C74;" d="M23.289,261.242c0,0.909-0.737,1.645-1.645,1.645s-1.645-0.737-1.645-1.645
						c0-0.909,0.737-1.645,1.645-1.645S23.289,260.333,23.289,261.242z"/>
					<path style="fill:#E6EAFC;" d="M28.204,261.242c0,0.909-0.737,1.645-1.645,1.645c-0.909,0-1.645-0.737-1.645-1.645
						c0-0.909,0.736-1.645,1.645-1.645C27.467,259.596,28.204,260.333,28.204,261.242z"/>
					<path style="fill:#E6EAFC;" d="M26.558,263.65h-5.175v0.026c-0.784,0.126-1.385,0.799-1.385,1.619
						c0,0.819,0.601,1.494,1.385,1.619v0.026h5.175c0.909,0,1.645-0.736,1.645-1.645C28.204,264.387,27.467,263.65,26.558,263.65z"
						/>
				</g>
			</g>
			<linearGradient id="SVGID_1_" gradientUnits="userSpaceOnUse" x1="156.8112" y1="155.2185" x2="320.125" y2="405.0565">
				<stop  offset="0" style="stop-color:#FFFFFF"/>
				<stop  offset="1" style="stop-color:#FFFFFF;stop-opacity:0"/>
			</linearGradient>
			<polygon style="opacity:0.3;fill:url(#SVGID_1_);" points="193.324,139.36 155.501,500 500,500 500,333.444 232.909,117.979 			
				"/>
		</g>
		<g>
			
				<line id="XMLID_16_" style="fill:none;stroke:#FFFFFF;stroke-width:31;stroke-miterlimit:10;" x1="241.025" y1="424.907" x2="356.991" y2="399.833"/>
			<path id="XMLID_15_" style="fill:#7E9AF5;" d="M279.218,450.121c-0.781-0.78-20.301-30.893-26.537-40.523
				c-1.183-1.827-3.211-2.93-5.388-2.93h-22.046c-1.81,0-3.533,0.758-4.748,2.099c-4.97,5.482-17.442,21.211-17.814,41.354"/>
			<path id="XMLID_14_" style="fill:#140C74;" d="M229.862,442.685h135.873c2.969,0,5.375,2.406,5.375,5.375v2.061H224.487v-2.061
				C224.487,445.091,226.893,442.685,229.862,442.685z"/>
			<g>
				
					<path id="XMLID_19_" style="fill:none;stroke:#140C74;stroke-width:17;stroke-linecap:round;stroke-linejoin:round;stroke-miterlimit:10;" d="
					M379.368,372.012l-85.486-23.925c0,0-8.393-0.26-11.177-0.022c-27.387,2.337-108.321,18.842-108.321,18.842"/>
				<path id="XMLID_18_" style="fill:#7E9AF5;" d="M398.607,354.928l0.31,5.112c0,0-5.952,27.812-10.612,35.939
					c-12.523,21.842-27.758,18.935-27.758,18.935l21.188-35.805L398.607,354.928z"/>
				<path id="XMLID_13_" style="fill:#7E9AF5;" d="M381.735,379.109l-21.188,35.805c-10.563-3.828-27.024-10.748-42.142-21.122
					c-12.392-8.503-20.956-19.988-26.425-29.356c-2.424-4.152,1.434-9.152,6.076-7.899L381.735,379.109z"/>
			</g>
		</g>
		<g>
			<path style="fill:#FF6B71;" d="M215.955,334.897c0,0-6.152,3.949-13.632,1.656c-3.326-1.489-7.571-5.212-7.571-5.212
				s2.432,9.965,12.012,14.513c2.698,1.011,6.072-0.534,6.072-0.534l-3.156,4.402l1.945,2.35c0,0,8.115-6.907,10.396-9.858
				C224.31,339.252,215.955,334.897,215.955,334.897z"/>
			<path style="fill:#0A085B;" d="M248.461,309.283c3.309-1.762,6.602-3.515,10.457-5.039c0.992-0.373,1.852-0.784,2.963-1.118
				l3.313-0.984c2.494-0.517,5.345-0.95,7.793-0.857c5.068,0.018,9.601,0.961,13.592,2.168c4.092,1.178,7.734,2.646,11.251,4.145
				c6.967,3.026,13.301,6.281,19.385,9.181c3.014,1.418,5.999,2.816,8.856,3.971c1.444,0.616,2.849,1.145,4.221,1.623l1.035,0.378
				c0.311,0.1,0.449,0.075,0.677,0.125c0.412,0.067,0.81,0.15,1.2,0.253c3.236,0.339,7.004-0.159,11.342-2.037
				c2.128-0.872,4.334-2.032,6.472-3.415c1.069-0.676,2.127-1.411,3.131-2.169c0.517-0.369,0.974-0.769,1.452-1.142
				c0.37-0.321,1.049-0.887,0.926-0.865l22.755,28.715c0,0-22.642,21.509-36.679,23.971c-14.017,2.458-39.041-24.753-46.241-29.484
				c-3.424-2.283-6.749-4.478-9.993-6.443c-2.678-1.605-5.324-3.1-7.787-4.19c-2.503-1.191-4.794-1.908-6.646-2.227
				c-1.018-0.234-1.625-0.176-2.555-0.227l-1.738,0.251c-0.578,0.062-1.33,0.311-1.991,0.453c-2.735,0.642-5.776,1.743-8.774,2.851
				c-12.114,4.771-24.49,11.143-36.265,17.734l-7.87-11.756C224.17,324.569,235.571,316.53,248.461,309.283z"/>
			<path style="fill:#FF6B71;" d="M215.119,350.364c0,0-6.368,3.591-13.704,0.873c-3.235-1.677-7.26-5.637-7.26-5.637
				s1.857,10.088,11.161,15.177c2.635,1.164,6.092-0.185,6.092-0.185l-3.402,4.214l1.807,2.458c0,0,8.498-6.431,10.944-9.247
				C223.211,355.19,215.119,350.364,215.119,350.364z"/>
			<path style="fill:#2D2A96;" d="M245.447,323.393c3.146-2.04,6.276-4.068,9.986-5.918c0.956-0.457,1.778-0.94,2.856-1.368
				l3.216-1.265c2.441-0.73,5.244-1.405,7.691-1.522c5.051-0.417,9.648,0.134,13.727,0.994c4.178,0.823,7.933,1.973,11.565,3.164
				c7.201,2.417,13.79,5.116,20.102,7.484c3.125,1.154,6.219,2.291,9.164,3.197c1.491,0.49,2.936,0.896,4.345,1.255l1.064,0.287
				c0.319,0.073,0.454,0.036,0.685,0.066c0.416,0.031,0.82,0.08,1.217,0.149c3.254,0.06,6.965-0.759,11.126-3.003
				c2.045-1.051,4.143-2.396,6.155-3.958c1.007-0.765,1.998-1.588,2.934-2.43c0.483-0.412,0.905-0.85,1.349-1.263
				c0.341-0.352,0.969-0.973,0.849-0.941l13.73,14.561c6.614,7.014,6.131,18.062-1.006,24.542
				c-6.842,6.212-15.298,12.784-22.075,14.583c-13.754,3.652-41.021-21.311-48.601-25.407c-3.608-1.98-7.108-3.882-10.509-5.562
				c-2.806-1.37-5.571-2.632-8.118-3.506c-2.596-0.972-4.94-1.49-6.813-1.648c-1.034-0.146-1.634-0.036-2.565-0.007l-1.71,0.4
				c-0.57,0.111-1.298,0.424-1.945,0.622c-2.67,0.874-5.605,2.232-8.497,3.594c-11.66,5.793-23.444,13.204-34.61,20.78l-8.85-11.038
				C222.557,340.708,233.226,331.721,245.447,323.393z"/>
			<path style="fill:#140C74;" d="M255.239,329.881c26.824-13.062,48.015,7.655,63.774,10.304
				c12.607,2.119,14.109-6.736,14.206-10.365c2.712-0.268,5.7-1.142,8.972-2.906c2.045-1.051,4.143-2.396,6.155-3.958
				c1.007-0.765,1.998-1.588,2.934-2.43c0.483-0.412,0.905-0.85,1.349-1.263c0.341-0.352,0.969-0.973,0.849-0.941l13.73,14.561
				c6.614,7.014,6.131,18.062-1.006,24.542c-6.842,6.212-15.298,12.784-22.075,14.583c-13.754,3.652-41.021-21.311-48.601-25.407
				c-3.608-1.98-7.108-3.882-10.509-5.562c-2.806-1.37-5.571-2.632-8.118-3.506c-2.596-0.972-4.94-1.49-6.813-1.648
				c-1.034-0.146-1.634-0.036-2.565-0.007l-1.71,0.4c-0.57,0.111-1.298,0.424-1.945,0.622c-2.67,0.874-5.605,2.232-8.497,3.594
				c-11.66,5.793-23.444,13.204-34.61,20.78l-3.655-4.558C222.655,351.125,235.615,339.437,255.239,329.881z"/>
			<path style="fill:#FF6B71;" d="M419.812,287.603c0,0-2.375-8.117-13.909-12.08c-11.534-3.963-23.278-4.543-28.654,4.76
				c-5.376,9.303-4.517,19.789-8.409,23.611c-3.892,3.821-22.624,14.258-29.084,13.361c0,0,16.217,35.464,36.68,38.823
				c9.721-14.178,24.181-44.758,32.536-51.405C417.326,298.025,421.289,292.959,419.812,287.603z"/>
			<path style="fill:#E84F5B;" d="M339.755,317.254c1.827,0.254,4.649-0.417,7.827-1.571c8.978,0.116,21.081,1.294,30.072-2.011
				c14.344-5.272,22.734-26.328,27.616-31.255c2.411-2.433,6.487-2.24,9.997-1.424c3.593,3.38,4.545,6.61,4.545,6.61
				c1.477,5.356-2.485,10.422-10.84,17.069c-8.355,6.647-22.815,37.227-32.536,51.405
				C355.973,352.718,339.755,317.254,339.755,317.254z"/>
			<path style="fill:#F9BABB;" d="M280.604,301.776c3.079-2.255,9.529-7.019,14.1-4.267c4.571,2.752,7.867,5.123,7.867,5.123
				c-0.008,0.04,24.991,2.215,27.218,2.287c7.173,0.234,14.357,0.134,21.521-0.299c6.314-0.381,12.169-0.825,17.921-3.702
				c3.382-1.689,6.696-4.172,9.877-6.81c3.192-2.662,6.214-5.749,9.079-8.97c0.18-0.201,0.43-0.497,0.731-0.862
				c4.062-4.931,11.292-5.77,16.351-1.858c5.768,4.459,6.147,13.038,0.797,17.991c-0.722,0.669-1.312,1.201-1.684,1.513
				c-4.03,3.4-8.237,6.623-12.861,9.484c-4.637,2.835-9.478,5.494-15.006,7.341c-5.466,1.844-11.646,2.961-17.871,2.498
				c-10.082-1.039-19.672-2.832-29.203-4.836c-9.524-2.04-18.882-4.303-28.28-6.848c-5.597-0.532-7.842-4.224-9.008-4.491
				c-1.166-0.267-3.459-1.622-6.457-0.982C282.697,304.727,277.525,304.031,280.604,301.776z"/>
			<path style="fill:#FF6B71;" d="M371.775,299.498c2.5-1.532,4.953-3.418,7.332-5.39c3.192-2.662,6.214-5.749,9.079-8.97
				c0.18-0.201,0.43-0.497,0.731-0.862c4.062-4.931,11.292-5.77,16.346-1.862l0.005,0.004c5.768,4.459,6.147,13.038,0.797,17.991
				c-0.722,0.669-1.312,1.201-1.684,1.513c-4.03,3.4-8.237,6.623-12.861,9.484c-3.605,2.204-7.337,4.295-11.415,5.988
				C376.49,313.11,373.006,303.225,371.775,299.498z"/>
			<g style="opacity:0.5;">
				<path style="fill:#FEDDB2;" d="M292.154,305.069c-0.146-0.033-0.311-0.085-0.492-0.146
					C291.828,304.977,291.981,305.003,292.154,305.069z"/>
				<path style="fill:#F9BABB;" d="M301.161,309.561c-5.597-0.532-7.842-4.224-9.008-4.491c7.936,3.065,55.236,14.701,77.987,7.508
					c18.771-5.935,30.294-24.681,33.754-31.063c0.471,0.27,0.934,0.561,1.375,0.903c5.768,4.459,6.147,13.038,0.797,17.991
					c-0.722,0.669-1.312,1.201-1.684,1.513c-4.03,3.4-8.237,6.623-12.861,9.483c-4.637,2.835-9.478,5.494-15.006,7.341
					c-5.466,1.844-11.645,2.96-17.871,2.498c-10.082-1.039-19.672-2.832-29.203-4.836
					C319.917,314.369,310.559,312.105,301.161,309.561z"/>
			</g>
			<path style="fill:#140C74;" d="M450.465,262.205c0,0,4.047,3.118,10.001-0.228c5.954-3.346,12.143-0.684,11.052,5.689
				c-1.091,6.372-1.754,10.056,1.953,12.729c3.967,2.861,7.133,7.393,7.589,12.34c0.748,8.116-5.876,18.396-14.813,17.961
				c-8.075-0.392-17.592-9.928-16.889-18.288c0.525-3.773,3.438-6.09,5.586-8.977c0.366-0.492,0.731-1.012,0.849-1.613
				c0.878-4.498-8.067-5.63-6.41-10.521c1.306-3.855-1.273-6.038-1.273-6.038L450.465,262.205z"/>
			<path style="fill:#FF6B71;" d="M444.708,262.06c-0.93,2.965,0.049,5.912,2.187,6.583c2.138,0.671,4.625-1.19,5.554-4.155
				c0.93-2.965-0.049-5.912-2.187-6.583C448.124,257.235,445.637,259.095,444.708,262.06z"/>
			<path style="fill:#E84F5B;" d="M447.364,258.416c-0.238,0.432-0.453,0.889-0.611,1.391c-0.93,2.965,0.049,5.912,2.187,6.583
				c0.955,0.299,1.973,0.072,2.898-0.511c-1.165,2.117-3.168,3.32-4.944,2.764c-2.138-0.671-3.117-3.617-2.187-6.583
				C445.222,260.419,446.219,259.139,447.364,258.416z"/>
			<path style="fill:#F9BABB;" d="M408.196,276.112c2.235-0.67,6.165-2.106,9.785-4.737c0.855,0.534,3.395,3.069,3.93,3.924
				c-1.489,2.056-2.564,4.397-3.246,6.839c-0.289,1.037-0.275,2.146-0.539,3.193c-0.104,0.413-0.224,1.048-0.564,1.348
				c-0.256,0.225-1.871,0.447-1.937,0.068c0,0-9.942-2.347-17.624-10.27C397.462,275.069,402.961,275.005,408.196,276.112z"/>
			<path style="fill:#0A085B;" d="M449.358,292.408c0.525-3.773,3.438-6.09,5.586-8.977c0.366-0.492,0.731-1.012,0.849-1.613
				c0.878-4.498-8.067-5.63-6.41-10.521c0.051-0.151,0.061-0.283,0.1-0.429c1.645,1.896,5.586,5.221,13.29,5.665
				c2.274-0.441,5.465-0.584,8.12-4.952c-0.54,4.062-0.294,6.745,2.577,8.815c3.967,2.861,7.133,7.393,7.589,12.34
				c0.748,8.116-5.876,18.396-14.813,17.961C458.172,310.304,448.654,300.768,449.358,292.408z"/>
			<path style="fill:#F9BABB;" d="M411.039,275.121c2.074-0.819,4.57-2.022,6.942-3.745c0.855,0.534,3.395,3.069,3.93,3.923
				c-0.977,1.349-1.716,2.737-2.277,4.064C416.033,278.842,412.549,276.336,411.039,275.121z"/>
			<path style="fill:#F9BABB;" d="M429.406,250.433c0,0,4.932-1.847,10.185,3.398c5.253,5.245,3.188,9.955,3.188,9.955
				s-14.425,20.271-24.238,10.903C409.158,264.888,429.406,250.433,429.406,250.433z"/>
			<path style="fill:#140C74;" d="M432.305,268.599c-0.307-1.088-2.3-1.643-3.771-0.647c-3.41,2.309-2.28-0.721-1.745-1.361
				c2.702-3.234,4.056-6.261,4.056-6.261c0.003,0,0.006,0.001,0.009,0.001c-2.746-3.762-2.6-7.584-2.151-9.822
				c0.247-1.234,1.292-2.126,2.549-2.167c2.76-0.091,7.87,0.368,11.63,4.375c5.404,5.757,2.751,13.224,1.008,15.834
				c-1.051,1.574-4.242,3.968-7.018,5.576c-0.001,0.001-0.002,0.002-0.003,0.003c-6.011,4.407-13.452,4.317-14.41,2.797
				C421.146,273.389,432.811,270.393,432.305,268.599z"/>
			<path style="fill:#F9BABB;" d="M422.681,256.358c0,0-3.771,2.31-5.487,2.955c-0.104,1.504,1.487,3.41,2.536,3.418
				C420.779,262.738,422.681,256.358,422.681,256.358z"/>
			<path style="fill:#0A085B;" d="M432.305,268.599c-0.307-1.088-2.3-1.643-3.771-0.647c-3.41,2.309-2.28-0.721-1.745-1.361
				c2.702-3.234,4.056-6.261,4.056-6.261c0.003,0,0.006,0.001,0.009,0.001c-1.158-1.586-1.782-3.176-2.105-4.66
				c0.188,0.311,2.751,4.458,6.334,5.02c-0.136,1.915,2.469,8.346,8.654,8.056c-1.167,1.572-4.198,3.835-6.865,5.38
				c-0.001,0.001-0.002,0.002-0.003,0.003c-6.011,4.407-13.452,4.317-14.41,2.797C421.146,273.389,432.811,270.393,432.305,268.599z
				"/>
			<path style="fill:#F9BABB;" d="M429.15,266.95c0.763-0.769,1.796-1.266,2.879-1.24c0.804,0.019,1.67,0.296,2.237,1.208
				c1.324,2.128-2.891,6.515-6.277,5.579C424.979,271.666,426.915,269.202,429.15,266.95z"/>
			<g>
				<path style="fill:#FF6B71;" d="M430.109,271.481c-0.166,0.009-0.331-0.017-0.481-0.089c-0.267-0.128-0.585-0.451-0.57-1.258
					c0.043-2.257,2.57-3.035,2.678-3.068c0.112-0.032,0.229,0.031,0.262,0.142c0.034,0.111-0.029,0.228-0.141,0.262
					c-0.023,0.007-2.339,0.725-2.376,2.671c-0.006,0.323,0.046,0.735,0.33,0.871c0.294,0.139,0.738-0.037,1.034-0.282
					c0.262-0.218,0.4-0.473,0.351-0.651c-0.188-0.689-0.876-0.571-0.909-0.565c-0.127,0.02-0.224-0.055-0.246-0.168
					c-0.021-0.114,0.054-0.225,0.168-0.246c0.379-0.07,1.163,0.017,1.393,0.869c0.094,0.347-0.087,0.752-0.486,1.085
					C430.842,271.282,430.469,271.462,430.109,271.481z"/>
			</g>
			<g>
				<path style="fill:#FF6B71;" d="M422.654,258.188c-0.011-0.018-0.019-0.039-0.023-0.061c-0.015-0.09,0.046-0.176,0.137-0.191
					c0.079-0.014,1.924-0.314,2.656,0.959c0.593,1.032,0.104,1.991-0.114,2.331c0.208,0.174,0.593,0.429,0.913,0.39
					c0.092-0.01,0.172,0.056,0.185,0.145c0.011,0.091-0.054,0.174-0.145,0.185c-0.623,0.075-1.263-0.551-1.289-0.577l-0.105-0.104
					l0.091-0.116c0.033-0.041,0.787-1.027,0.177-2.087c-0.606-1.081-2.297-0.801-2.314-0.798
					C422.754,258.275,422.689,258.243,422.654,258.188z"/>
			</g>
			<path style="fill:#FF6B71;" d="M418.841,263.729c0,0,1.973,1.7,1.544,3.319c-0.429,1.619-2.578,2.938-3.328,2.514
				C416.308,269.139,416.495,265.093,418.841,263.729z"/>
			<path style="fill:#0A085B;" d="M425.557,255.781c0.789,0.626,1.237,1.522,1.465,2.39c0.118,0.449,0.031,0.923,0.213,1.347
				c0.169,0.438,0.348,0.889,0.758,1.407c0.032,0.043,0.092,0.052,0.135,0.02c0.005-0.004,0.012-0.011,0.016-0.015
				c0.424-0.501,0.572-1.069,0.586-1.639c0.019-0.58-0.313-1.101-0.594-1.591c-0.566-0.99-1.463-1.799-2.524-2.06
				c-0.041-0.01-0.082,0.015-0.092,0.056c-0.007,0.03,0.004,0.06,0.026,0.077L425.557,255.781z"/>
		</g>
		<g>
			<path id="XMLID_5_" style="fill:#FFFFFF;" d="M434.711,287.238l12.698-20.244c0.841-1.341,0.436-3.11-0.905-3.951l0,0
				c-1.341-0.841-3.109-0.436-3.951,0.905l-12.698,20.244c-0.841,1.341-0.436,3.109,0.905,3.951l0,0
				C432.101,288.984,433.87,288.579,434.711,287.238z"/>
			
				<path id="XMLID_2_" style="fill:none;stroke:#140C74;stroke-width:10;stroke-linecap:round;stroke-linejoin:round;stroke-miterlimit:10;" d="
				M444.714,259.168c-1.341-0.841-3.11-0.436-3.95,0.905l-13.65,20.227"/>
			<path id="XMLID_12_" style="fill:#FFFFFF;" d="M374.034,365.4l23.648-9.274l33.574-62.555c0.705-1.314,0.28-2.95-0.976-3.755l0,0
				c-1.336-0.856-3.114-0.458-3.958,0.886l-17.827,28.387c0,0-8.463,7.789-13.076,14.395c-4.613,6.605-5.822,16.377-5.822,16.377
				l-18.015,3.865L374.034,365.4z"/>
			
				<path id="XMLID_9_" style="fill:none;stroke:#140C74;stroke-width:10;stroke-linecap:round;stroke-linejoin:round;stroke-miterlimit:10;" d="
				M422.457,289.782l-17.497,27.424c0,0-9.847,6.855-14.461,13.46c-4.613,6.605-4.437,17.312-4.437,17.312"/>
			<path id="XMLID_8_" style="fill:#FFFFFF;" d="M379.284,359.005l-11.456,19.359c-0.341,0.576-1.024,0.854-1.671,0.68l-14.049-3.79
				c-1.066-0.288-1.46-1.595-0.73-2.424l18.086-20.529L379.284,359.005z"/>
			<path id="XMLID_6_" style="fill:#7E9AF5;" d="M368.916,355.535c-0.264,2.88,1.857,5.429,4.738,5.692
				c2.88,0.264,5.429-1.857,5.692-4.738c0.264-2.88-1.857-5.429-4.738-5.692C371.728,350.534,369.18,352.655,368.916,355.535z"/>
		</g>
	</g>
</g>
</svg>
